<?xml version="1.0" encoding="utf-8"?>
<!-- Generator: Adobe Illustrator 22.1.0, SVG Export Plug-In . SVG Version: 6.00 Build 0)  -->
<svg version="1.1" id="Шар_1" xmlns="http://www.w3.org/2000/svg" xmlns:xlink="http://www.w3.org/1999/xlink" x="0px" y="0px"
	 viewBox="0 0 750 750" style="enable-background:new 0 0 750 750;" xml:space="preserve">
<style type="text/css">
	.st0{fill:#303030;}
	.st1{fill:#FFC763;}
	.st2{fill:#F4F4F4;}
	.st3{fill:#D3E4F2;}
</style>
<g>
	<g>
		<path class="st0" d="M40.9,139.7c4.2-1.3,6.4,1.2,10.3-0.5c23-9.2,109.3-20.7,166.4,28.5c53.7,45.9,74,140.5,68,142.1
			c-9.1,2.5-17.8-77.5-61.7-121.4c-24.7-24.7-80.3-62.1-164.6-40.8c-4.3,1.2-8.3,7.7-11.4,8.7C35.9,160,27.8,144,40.9,139.7z"/>
		<path class="st0" d="M10.9,194.2c4.2-1.6,6.5,0.8,10.3-1c22.5-10.5,107.4-30.4,164.4,11.8c60.3,44.6,72.7,127.1,66.7,129.1
			c-9,3-13.4-69.7-59.5-111.3c-26-23.4-79.9-47.3-163-21.7c-4.2,1.3-7.9,8.1-11,9.2C6.9,214.8-2.1,199,10.9,194.2z"/>
	</g>
	<path class="st0" d="M440.3,703.9L211.5,582.2c-75.7-40.3-104.4-134.3-64.2-209.9l0,0c43.4-72.1,138.7-73.4,209.7-59.1
		c63.4,12.7,228.9,116.6,228.9,116.6C661.5,470,690.2,564,650.1,639.6l0,0C609.9,715.3,515.9,744.2,440.3,703.9z"/>
	<g>
		<path class="st1" d="M589.5,489.5L494.1,669c-2.2,4,0.8,9.1,5.5,9c42.8-1.6,83.5-25.1,105-65.5c21.6-40.4,18.3-87.4-4.3-123.6
			C597.5,485,591.6,485.4,589.5,489.5z"/>
	</g>
	<path class="st1" d="M187.7,409.6c-16.1,40.2-7.4,85.1,20.7,116.2c2.9,3.1,7.9,2.2,9.9-1.3l41.1-77.5c1.6-3,0.5-6.6-2.5-8.3
		l-60.6-32.1C193.3,404.8,189,406.2,187.7,409.6z"/>
	<g>
		<circle class="st0" cx="237.6" cy="350.7" r="71.1"/>
		<circle class="st2" cx="237.6" cy="350.7" r="54.7"/>
		<ellipse class="st0" cx="218.4" cy="338.2" rx="20.4" ry="20.4"/>
	</g>
	<path class="st0" d="M651.7,582.1l92.6,92.6c3,3,0,7.9-3.9,6.8l-107.5-30.7L651.7,582.1z"/>
	<g>
		<g>
			
				<ellipse transform="matrix(0.5736 -0.8191 0.8191 0.5736 36.2084 584.4297)" class="st0" cx="579.5" cy="257.4" rx="180.5" ry="115.2"/>
			
				<ellipse transform="matrix(0.5736 -0.8191 0.8191 0.5736 36.2084 584.4297)" class="st3" cx="579.5" cy="257.4" rx="143.1" ry="91.4"/>
		</g>
		<g>
			
				<ellipse transform="matrix(0.225 -0.9744 0.9744 0.225 167.9892 635.1239)" class="st0" cx="483.2" cy="212" rx="186.8" ry="119.3"/>
			
				<ellipse transform="matrix(0.225 -0.9744 0.9744 0.225 167.9892 635.1239)" class="st3" cx="483.2" cy="212" rx="148.2" ry="94.6"/>
		</g>
	</g>
	<path class="st1" d="M319.6,587.7L269.3,561c-5.4-2.9-7.4-9.5-4.5-14.9L359.5,368c2.9-5.4,9.5-7.4,14.9-4.5l50.3,26.7
		c5.4,2.9,7.4,9.5,4.5,14.9l-94.7,178.1C331.6,588.5,325,590.6,319.6,587.7z"/>
	<path class="st1" d="M434.3,648.7L384,622c-5.4-2.9-7.4-9.5-4.5-14.9l94.7-178.1c2.9-5.4,9.5-7.4,14.9-4.5l50.3,26.7
		c5.4,2.9,7.4,9.5,4.5,14.9l-94.7,178.1C446.3,649.6,439.7,651.6,434.3,648.7z"/>
</g>
</svg>
