<svg width="31" height="25" viewBox="0 0 31 25" fill="none" xmlns="http://www.w3.org/2000/svg">
<path d="M31 2.95962C29.8472 3.46154 28.6188 3.79423 27.3381 3.95577C28.6556 3.175 29.6612 1.94808 30.1339 0.469231C28.9056 1.19615 27.5493 1.70962 26.1039 1.99615C24.9376 0.763462 23.2752 0 21.4617 0C17.9432 0 15.1106 2.83462 15.1106 6.30962C15.1106 6.80962 15.1532 7.29038 15.2578 7.74808C9.97425 7.49231 5.29906 4.97885 2.15838 1.15C1.61006 2.09423 1.28844 3.175 1.28844 4.33846C1.28844 6.52308 2.42188 8.45961 4.11137 9.58077C3.09031 9.56154 2.08862 9.26731 1.24 8.80385C1.24 8.82308 1.24 8.84808 1.24 8.87308C1.24 11.9385 3.44294 14.4846 6.33175 15.0712C5.81444 15.2115 5.25062 15.2788 4.6655 15.2788C4.25863 15.2788 3.84787 15.2558 3.46231 15.1712C4.28575 17.6692 6.62238 19.5058 9.40075 19.5654C7.2385 21.2442 4.49306 22.2558 1.52094 22.2558C0.99975 22.2558 0.499875 22.2327 0 22.1692C2.81519 23.9712 6.15156 25 9.7495 25C21.4443 25 27.838 15.3846 27.838 7.05C27.838 6.77115 27.8283 6.50192 27.8147 6.23462C29.0761 5.34615 30.1359 4.23654 31 2.95962Z" fill="#69B7EE"/>
</svg>
