<?xml version="1.0" encoding="utf-8"?>
<!-- Generator: Adobe Illustrator 22.1.0, SVG Export Plug-In . SVG Version: 6.00 Build 0)  -->
<svg version="1.1" id="Capa_1" xmlns="http://www.w3.org/2000/svg" xmlns:xlink="http://www.w3.org/1999/xlink" x="0px" y="0px"
	 viewBox="0 0 111 37" style="enable-background:new 0 0 111 37;" xml:space="preserve" width="111px" height="37px">
<style type="text/css">
	.st0{fill:#FFFFFF;}
</style>
<g>
	<path class="st0" d="M60.6,8.4h-2.7c-2.9,0-4.9,2-4.9,5v2.3h-2.7c-0.2,0-0.4,0.2-0.4,0.4v3.3c0,0.2,0.2,0.4,0.4,0.4H53v8.4
		c0,0.2,0.2,0.4,0.4,0.4h3.4c0.2,0,0.4-0.2,0.4-0.4v-8.4h3.1c0.2,0,0.4-0.2,0.4-0.4v-3.3c0-0.1,0-0.2-0.1-0.2s-0.2-0.1-0.2-0.1h-2.9
		v-2c0-1,0.2-1.5,1.5-1.5h1.8c0.2,0,0.4-0.2,0.4-0.4v-3C61,8.5,60.8,8.4,60.6,8.4z"/>
</g>
<path id="LinkedIn_3_" class="st0" d="M100.5,18.9v7.7h-3.4v-7.2c0-1.5-0.5-2.5-1.7-2.5c-0.9,0-1.5,0.8-1.7,1.4
	c-0.1,0.2-0.1,0.7-0.1,0.9v7.5h-3.4c0,0,0-11.5,0-12.4h3.4V16l0,0l0,0l0,0c0.5-0.8,1.3-1.9,3.1-1.9C98.8,14,100.5,15.5,100.5,18.9z
	 M86.4,8.8c-1.1,0-1.9,0.9-1.9,2s0.8,2,1.9,2l0,0c1.1,0,1.9-0.9,1.9-2C88.4,9.7,87.6,8.8,86.4,8.8z M84.7,26.7h3.4V14.3h-3.4V26.7z"
	/>
<path class="st0" d="M27.4,12.9c-0.1-0.1-0.3-0.2-0.4-0.1c-0.2,0.1-0.3,0.1-0.6,0.2c0.3-0.3,0.4-0.8,0.7-1.1
	c0.1-0.2-0.1-0.4-0.3-0.6c-0.1,0-0.2,0-0.3,0.1c-0.7,0.3-1.2,0.6-1.9,0.8c-1.3-1.2-3.4-1.5-4.9-0.4c-1.1,0.8-1.8,2.2-1.7,3.6
	c-2.5-0.2-4.8-1.5-6.4-3.5c-0.1-0.1-0.2-0.1-0.3-0.1S11.1,11.9,11,12c-0.6,0.8-0.8,1.9-0.4,2.9c0.1,0.6,0.3,0.9,0.7,1.3
	c-0.1-0.1-0.3-0.1-0.4-0.2c-0.2-0.1-0.4-0.1-0.6,0.1c0.1,0.1,0.1,0.1,0.1,0.2c0,1.5,0.8,2.7,2.1,3.5c-0.2,0-0.3-0.1-0.6-0.1
	c-0.2-0.1-0.4,0.1-0.6,0.2c0,0.1,0,0.2,0,0.3c0.6,1.2,1.7,2.1,2.9,2.5c-1.2,0.8-2.6,0.9-4,0.8c-0.2,0-0.3,0.1-0.4,0.3
	c-0.1,0.2,0,0.3,0.2,0.4c1.8,1,3.7,1.6,5.7,1.7c1.9,0,3.8-0.7,5.5-1.7c3-2,5.1-5.6,4.7-9c0.7-0.6,1.2-1,1.7-1.8
	C27.5,13.2,27.5,13,27.4,12.9z"/>
</svg>
