<?xml version="1.0" encoding="utf-8"?>
<!-- Generator: Adobe Illustrator 22.1.0, SVG Export Plug-In . SVG Version: 6.00 Build 0)  -->
<svg version="1.1" id="Шар_1" xmlns="http://www.w3.org/2000/svg" xmlns:xlink="http://www.w3.org/1999/xlink" x="0px" y="0px"
	 viewBox="0 0 224 112" style="enable-background:new 0 0 224 112;" xml:space="preserve" width="224px" height="112px">
<style type="text/css">
	.st0{fill:none;}
	.st1{fill:#FFFFFF;}
	.st2{fill:#F38181;}
</style>
<g>
	<rect class="st0" width="56" height="56"/>
</g>
<g>
	<rect x="56" class="st0" width="56" height="56"/>
</g>
<g>
	<rect x="112" class="st0" width="56" height="56"/>
</g>
<g>
	<rect x="168" class="st0" width="56" height="56"/>
</g>
<g>
	<path class="st1" d="M36.5,11l-4.4,0c-5,0-8.2,3.3-8.2,8.4v3.9h-4.4c-0.4,0-0.7,0.3-0.7,0.7v5.6c0,0.4,0.3,0.7,0.7,0.7h4.4v14.1
		c0,0.4,0.3,0.7,0.7,0.7h5.8c0.4,0,0.7-0.3,0.7-0.7V30.2h5.2c0.4,0,0.7-0.3,0.7-0.7l0-5.6c0-0.2-0.1-0.4-0.2-0.5
		c-0.1-0.1-0.3-0.2-0.5-0.2h-5.2V20c0-1.6,0.4-2.4,2.4-2.4l3,0c0.4,0,0.7-0.3,0.7-0.7v-5.2C37.2,11.3,36.9,11,36.5,11z"/>
</g>
<path class="st1" d="M97.4,19.2c-0.6,0.3-1.3,0.5-1.9,0.6c0.7-0.7,1.3-1.5,1.6-2.5l0,0c0.1-0.3-0.2-0.5-0.5-0.4l0,0
	c-0.9,0.5-1.9,0.9-2.9,1.2c-0.1,0-0.1,0-0.2,0c-0.2,0-0.4-0.1-0.5-0.2c-1.1-1-2.5-1.5-3.9-1.5c-0.6,0-1.3,0.1-1.9,0.3
	c-1.9,0.6-3.4,2.2-3.9,4.2c-0.2,0.7-0.2,1.5-0.1,2.2c0,0.1,0,0.1-0.1,0.2c0,0-0.1,0.1-0.2,0.1c0,0,0,0,0,0c-4.2-0.4-8-2.4-10.7-5.7
	l0,0c-0.1-0.2-0.4-0.1-0.5,0l0,0c-0.5,0.9-0.8,1.9-0.8,3c0,1.6,0.6,3.1,1.8,4.2c-0.5-0.1-0.9-0.3-1.4-0.5l0,0
	c-0.2-0.1-0.5,0-0.5,0.3l0,0c0,2.4,1.4,4.5,3.5,5.5c0,0-0.1,0-0.1,0c-0.3,0-0.7,0-1-0.1l0,0c-0.2,0-0.4,0.2-0.4,0.4l0,0
	c0.7,2.1,2.5,3.7,4.7,4.1c-1.8,1.2-3.9,1.9-6.2,1.9l-0.7,0c-0.2,0-0.4,0.1-0.4,0.3c-0.1,0.2,0,0.4,0.2,0.5c2.5,1.5,5.3,2.2,8.2,2.2
	c2.5,0,4.9-0.5,7-1.5c2-0.9,3.7-2.2,5.1-3.9c1.4-1.5,2.4-3.3,3.1-5.3C94.7,27,95,25,95,23.1V23c0-0.3,0.1-0.6,0.4-0.8
	c0.9-0.7,1.7-1.6,2.4-2.6l0,0C97.9,19.4,97.7,19,97.4,19.2L97.4,19.2z"/>
<path class="st1" d="M153.4,30.9c1.2,1.2,2.5,2.3,3.6,3.7c0.5,0.6,0.9,1.2,1.3,1.9c0.5,1,0,2-0.8,2.1l-5.4,0
	c-1.4,0.1-2.5-0.4-3.4-1.4c-0.7-0.8-1.4-1.6-2.2-2.4c-0.3-0.3-0.6-0.6-1-0.9c-0.7-0.5-1.4-0.3-1.8,0.4c-0.4,0.8-0.5,1.6-0.6,2.5
	c-0.1,1.3-0.4,1.6-1.7,1.7c-2.7,0.1-5.3-0.3-7.7-1.7c-2.1-1.2-3.8-2.9-5.2-4.9c-2.8-3.8-4.9-7.9-6.9-12.2c-0.4-1-0.1-1.5,0.9-1.5
	c1.8,0,3.5,0,5.3,0c0.7,0,1.2,0.4,1.5,1.1c1,2.3,2.1,4.6,3.6,6.6c0.4,0.6,0.8,1.1,1.4,1.5c0.6,0.4,1.1,0.3,1.4-0.4
	c0.2-0.4,0.3-0.9,0.3-1.4c0.1-1.6,0.2-3.3-0.1-4.9c-0.2-1-0.7-1.7-1.7-1.9c-0.5-0.1-0.4-0.3-0.2-0.6c0.4-0.5,0.8-0.8,1.7-0.8h6.1
	c1,0.2,1.2,0.6,1.3,1.6l0,6.8c0,0.4,0.2,1.5,0.9,1.7c0.5,0.2,0.9-0.3,1.2-0.6c1.5-1.6,2.5-3.4,3.4-5.3c0.4-0.8,0.8-1.7,1.1-2.6
	c0.3-0.6,0.7-1,1.4-0.9l5.9,0c0.2,0,0.4,0,0.5,0c1,0.2,1.3,0.6,1,1.6c-0.5,1.5-1.4,2.8-2.3,4.1c-1,1.4-2,2.7-3,4
	C152.2,29.1,152.3,29.8,153.4,30.9L153.4,30.9z"/>
<g>
	<g>
		<g>
			<path class="st1" d="M201.4,13.5h-10.9c-5,0-9.1,4.1-9.1,9.1v10.9c0,5,4.1,9.1,9.1,9.1h10.9c5,0,9.1-4.1,9.1-9.1V22.6
				C210.5,17.6,206.4,13.5,201.4,13.5z M207.8,33.4c0,3.5-2.8,6.3-6.3,6.3h-10.9c-3.5,0-6.3-2.8-6.3-6.3V22.6c0-3.5,2.8-6.3,6.3-6.3
				h10.9c3.5,0,6.3,2.8,6.3,6.3V33.4z"/>
		</g>
	</g>
	<g>
		<g>
			<path class="st1" d="M196,20.8c-4,0-7.3,3.2-7.3,7.3s3.2,7.3,7.3,7.3s7.3-3.2,7.3-7.3S200,20.8,196,20.8z M196,32.5
				c-2.5,0-4.5-2-4.5-4.5c0-2.5,2-4.5,4.5-4.5s4.5,2,4.5,4.5C200.5,30.5,198.5,32.5,196,32.5z"/>
		</g>
	</g>
</g>
<g>
	<rect y="56" class="st0" width="56" height="56"/>
</g>
<g>
	<rect x="56" y="56" class="st0" width="56" height="56"/>
</g>
<g>
	<rect x="112" y="56" class="st0" width="56" height="56"/>
</g>
<g>
	<rect x="168" y="56" class="st0" width="56" height="56"/>
</g>
<g>
	<path class="st2" d="M36.5,67l-4.4,0c-5,0-8.2,3.3-8.2,8.4v3.9h-4.4c-0.4,0-0.7,0.3-0.7,0.7v5.6c0,0.4,0.3,0.7,0.7,0.7h4.4v14.1
		c0,0.4,0.3,0.7,0.7,0.7h5.8c0.4,0,0.7-0.3,0.7-0.7V86.2h5.2c0.4,0,0.7-0.3,0.7-0.7l0-5.6c0-0.2-0.1-0.4-0.2-0.5
		c-0.1-0.1-0.3-0.2-0.5-0.2h-5.2V76c0-1.6,0.4-2.4,2.4-2.4l3,0c0.4,0,0.7-0.3,0.7-0.7v-5.2C37.2,67.3,36.9,67,36.5,67z"/>
</g>
<path class="st2" d="M97.4,75.2c-0.6,0.3-1.3,0.5-1.9,0.6c0.7-0.7,1.3-1.5,1.6-2.5l0,0c0.1-0.3-0.2-0.5-0.5-0.4l0,0
	c-0.9,0.5-1.9,0.9-2.9,1.2c-0.1,0-0.1,0-0.2,0c-0.2,0-0.4-0.1-0.5-0.2c-1.1-1-2.5-1.5-3.9-1.5c-0.6,0-1.3,0.1-1.9,0.3
	c-1.9,0.6-3.4,2.2-3.9,4.2c-0.2,0.7-0.2,1.5-0.1,2.2c0,0.1,0,0.1-0.1,0.2c0,0-0.1,0.1-0.2,0.1c0,0,0,0,0,0c-4.2-0.4-8-2.4-10.7-5.7
	l0,0c-0.1-0.2-0.4-0.1-0.5,0l0,0c-0.5,0.9-0.8,1.9-0.8,3c0,1.6,0.6,3.1,1.8,4.2c-0.5-0.1-0.9-0.3-1.4-0.5l0,0
	c-0.2-0.1-0.5,0-0.5,0.3l0,0c0,2.4,1.4,4.5,3.5,5.5c0,0-0.1,0-0.1,0c-0.3,0-0.7,0-1-0.1l0,0c-0.2,0-0.4,0.2-0.4,0.4l0,0
	c0.7,2.1,2.5,3.7,4.7,4.1c-1.8,1.2-3.9,1.9-6.2,1.9l-0.7,0c-0.2,0-0.4,0.1-0.4,0.3c-0.1,0.2,0,0.4,0.2,0.5c2.5,1.5,5.3,2.2,8.2,2.2
	c2.5,0,4.9-0.5,7-1.5c2-0.9,3.7-2.2,5.1-3.9c1.4-1.5,2.4-3.3,3.1-5.3C94.7,83,95,81,95,79.1V79c0-0.3,0.1-0.6,0.4-0.8
	c0.9-0.7,1.7-1.6,2.4-2.6l0,0C97.9,75.4,97.7,75,97.4,75.2L97.4,75.2z"/>
<path class="st2" d="M153.4,86.9c1.2,1.2,2.5,2.3,3.6,3.7c0.5,0.6,0.9,1.2,1.3,1.9c0.5,1,0,2-0.8,2.1l-5.4,0
	c-1.4,0.1-2.5-0.4-3.4-1.4c-0.7-0.8-1.4-1.6-2.2-2.4c-0.3-0.3-0.6-0.6-1-0.9c-0.7-0.5-1.4-0.3-1.8,0.4c-0.4,0.8-0.5,1.6-0.6,2.5
	c-0.1,1.3-0.4,1.6-1.7,1.7c-2.7,0.1-5.3-0.3-7.7-1.7c-2.1-1.2-3.8-2.9-5.2-4.9c-2.8-3.8-4.9-7.9-6.9-12.2c-0.4-1-0.1-1.5,0.9-1.5
	c1.8,0,3.5,0,5.3,0c0.7,0,1.2,0.4,1.5,1.1c1,2.3,2.1,4.6,3.6,6.6c0.4,0.6,0.8,1.1,1.4,1.5c0.6,0.4,1.1,0.3,1.4-0.4
	c0.2-0.4,0.3-0.9,0.3-1.4c0.1-1.6,0.2-3.3-0.1-4.9c-0.2-1-0.7-1.7-1.7-1.9c-0.5-0.1-0.4-0.3-0.2-0.6c0.4-0.5,0.8-0.8,1.7-0.8h6.1
	c1,0.2,1.2,0.6,1.3,1.6l0,6.8c0,0.4,0.2,1.5,0.9,1.7c0.5,0.2,0.9-0.3,1.2-0.6c1.5-1.6,2.5-3.4,3.4-5.3c0.4-0.8,0.8-1.7,1.1-2.6
	c0.3-0.6,0.7-1,1.4-0.9l5.9,0c0.2,0,0.4,0,0.5,0c1,0.2,1.3,0.6,1,1.6c-0.5,1.5-1.4,2.8-2.3,4.1c-1,1.4-2,2.7-3,4
	C152.2,85.1,152.3,85.8,153.4,86.9L153.4,86.9z"/>
<g>
	<g>
		<g>
			<path class="st2" d="M201.4,69.5h-10.9c-5,0-9.1,4.1-9.1,9.1v10.9c0,5,4.1,9.1,9.1,9.1h10.9c5,0,9.1-4.1,9.1-9.1V78.6
				C210.5,73.6,206.4,69.5,201.4,69.5z M207.8,89.4c0,3.5-2.8,6.3-6.3,6.3h-10.9c-3.5,0-6.3-2.8-6.3-6.3V78.6c0-3.5,2.8-6.3,6.3-6.3
				h10.9c3.5,0,6.3,2.8,6.3,6.3V89.4z"/>
		</g>
	</g>
	<g>
		<g>
			<path class="st2" d="M196,76.8c-4,0-7.3,3.2-7.3,7.3s3.2,7.3,7.3,7.3s7.3-3.2,7.3-7.3S200,76.8,196,76.8z M196,88.5
				c-2.5,0-4.5-2-4.5-4.5c0-2.5,2-4.5,4.5-4.5s4.5,2,4.5,4.5C200.5,86.5,198.5,88.5,196,88.5z"/>
		</g>
	</g>
</g>
</svg>
